<svg width="1286" height="326" viewBox="0 0 1286 326" fill="none" xmlns="http://www.w3.org/2000/svg">
<path d="M0.447266 323L31.3262 3.3125H139.766L170.1 323H109.613L105.072 271.414H66.5645L62.5684 323H0.447266ZM71.1055 220.373H100.168L86.1816 57.8047H83.2754L71.1055 220.373ZM189.717 323V3.3125H276.359C299.609 3.3125 316.502 9.00391 327.037 20.3867C337.693 31.6484 343.021 50.2969 343.021 76.332V90.3184C343.021 105.334 340.297 117.504 334.848 126.828C329.52 136.152 321.346 142.268 310.326 145.174C324.736 148.807 334.363 157.344 339.207 170.785C344.172 184.105 346.654 200.393 346.654 219.646C346.654 240.354 344.717 258.457 340.842 273.957C336.967 289.457 329.943 301.506 319.771 310.104C309.6 318.701 295.129 323 276.359 323H189.717ZM252.201 123.74H265.279C271.213 123.74 275.027 121.439 276.723 116.838C278.418 112.236 279.266 106.727 279.266 100.309V68.1582C279.266 57.8652 274.725 52.7188 265.643 52.7188H252.201V123.74ZM258.559 266.691C275.148 266.691 283.443 258.82 283.443 243.078V203.117C283.443 194.035 282.051 186.891 279.266 181.684C276.602 176.355 271.516 173.691 264.008 173.691H252.201V266.328C254.865 266.57 256.984 266.691 258.559 266.691ZM444.014 325.906C418.463 325.906 398.906 318.217 385.344 302.838C371.902 287.338 365.182 264.996 365.182 235.812V83.9609C365.182 56.5937 371.842 35.8262 385.162 21.6582C398.604 7.49023 418.221 0.40625 444.014 0.40625C469.807 0.40625 489.363 7.49023 502.684 21.6582C516.125 35.8262 522.846 56.5937 522.846 83.9609V235.812C522.846 264.996 516.064 287.338 502.502 302.838C489.061 318.217 469.564 325.906 444.014 325.906ZM444.559 267.055C454.246 267.055 459.09 257.67 459.09 238.9V82.8711C459.09 67.1289 454.367 59.2578 444.922 59.2578C434.266 59.2578 428.938 67.3105 428.938 83.416V239.264C428.938 249.193 430.148 256.338 432.57 260.697C434.992 264.936 438.988 267.055 444.559 267.055ZM622.566 325.906C595.926 325.906 576.309 318.459 563.715 303.564C551.121 288.549 544.824 266.51 544.824 237.447V3.3125H606.945V234.904C606.945 240.232 607.248 245.379 607.854 250.344C608.459 255.188 609.852 259.184 612.031 262.332C614.211 265.48 617.723 267.055 622.566 267.055C627.531 267.055 631.104 265.541 633.283 262.514C635.463 259.365 636.795 255.309 637.279 250.344C637.885 245.379 638.188 240.232 638.188 234.904V3.3125H700.309V237.447C700.309 266.51 694.012 288.549 681.418 303.564C668.824 318.459 649.207 325.906 622.566 325.906ZM752.258 323V64.707H714.295V3.3125H854.158V64.707H816.195V323H752.258ZM1033.07 325.906C1006.43 325.906 986.816 318.459 974.223 303.564C961.629 288.549 955.332 266.51 955.332 237.447V3.3125H1017.45V234.904C1017.45 240.232 1017.76 245.379 1018.36 250.344C1018.97 255.188 1020.36 259.184 1022.54 262.332C1024.72 265.48 1028.23 267.055 1033.07 267.055C1038.04 267.055 1041.61 265.541 1043.79 262.514C1045.97 259.365 1047.3 255.309 1047.79 250.344C1048.39 245.379 1048.7 240.232 1048.7 234.904V3.3125H1110.82V237.447C1110.82 266.51 1104.52 288.549 1091.93 303.564C1079.33 318.459 1059.71 325.906 1033.07 325.906ZM1211.26 325.906C1182.08 325.906 1161.01 318.641 1148.05 304.109C1135.22 289.578 1128.8 266.449 1128.8 234.723V203.48H1192.01V243.441C1192.01 250.828 1193.1 256.641 1195.28 260.879C1197.58 264.996 1201.52 267.055 1207.09 267.055C1212.9 267.055 1216.89 265.359 1219.07 261.969C1221.38 258.578 1222.53 253.008 1222.53 245.258C1222.53 235.449 1221.56 227.275 1219.62 220.736C1217.68 214.076 1214.29 207.779 1209.45 201.846C1204.72 195.791 1198.12 188.768 1189.65 180.775L1160.95 153.529C1139.52 133.307 1128.8 110.178 1128.8 84.1426C1128.8 56.8965 1135.1 36.1289 1147.69 21.8398C1160.4 7.55078 1178.75 0.40625 1202.73 0.40625C1232.03 0.40625 1252.8 8.2168 1265.03 23.8379C1277.38 39.459 1283.56 63.1934 1283.56 95.041H1218.53V73.0625C1218.53 68.7031 1217.26 65.3125 1214.71 62.8906C1212.29 60.4688 1208.96 59.2578 1204.72 59.2578C1199.64 59.2578 1195.88 60.7109 1193.46 63.6172C1191.16 66.4023 1190.01 70.0352 1190.01 74.5156C1190.01 78.9961 1191.22 83.8398 1193.64 89.0469C1196.07 94.2539 1200.85 100.248 1207.99 107.029L1244.87 142.449C1252.25 149.473 1259.04 156.92 1265.21 164.791C1271.39 172.541 1276.35 181.623 1280.11 192.037C1283.86 202.33 1285.74 214.924 1285.74 229.818C1285.74 259.85 1280.17 283.402 1269.03 300.477C1258.01 317.43 1238.75 325.906 1211.26 325.906Z" fill="url(#paint0_linear_226_38)"/>
<defs>
<linearGradient id="paint0_linear_226_38" x1="644" y1="253" x2="644" y2="7" gradientUnits="userSpaceOnUse">
<stop stop-color="#1A1A1A" stop-opacity="0"/>
<stop offset="1" stop-color="#C3F400"/>
</linearGradient>
</defs>
</svg>
