<svg width="273" height="366" viewBox="0 0 273 366" fill="none" xmlns="http://www.w3.org/2000/svg">
<path d="M41.6562 175.562C29.2214 175.562 19.1953 171.689 11.5781 163.941C4.02604 156.194 0.25 145.354 0.25 131.422V52.125C0.25 35.4583 3.53776 22.6979 10.1133 13.8438C16.7539 4.98958 27.5286 0.5625 42.4375 0.5625C50.5755 0.5625 57.8021 2.0599 64.1172 5.05469C70.4974 8.04948 75.5104 12.5417 79.1562 18.5312C82.8021 24.4557 84.625 31.9427 84.625 40.9922V70.6797H50.4453V45.2891C50.4453 40.1458 49.7943 36.6953 48.4922 34.9375C47.1901 33.1146 45.1719 32.2031 42.4375 32.2031C39.2474 32.2031 37.099 33.375 35.9922 35.7188C34.8854 37.9974 34.332 41.0573 34.332 44.8984V130.934C34.332 135.686 35.0156 139.039 36.3828 140.992C37.8151 142.945 39.8333 143.922 42.4375 143.922C45.3672 143.922 47.418 142.717 48.5898 140.309C49.8268 137.9 50.4453 134.775 50.4453 130.934V99.9766H85.0156V132.496C85.0156 147.6 81.207 158.57 73.5898 165.406C65.9727 172.177 55.3281 175.562 41.6562 175.562ZM94.9766 174V2.125H128.18V174H94.9766ZM156.598 174V35.1328H136.188V2.125H211.383V35.1328H190.973V174H156.598ZM1.61719 364V192.125H54.3516C63.1406 192.125 69.7812 194.143 74.2734 198.18C78.7656 202.151 81.7604 207.75 83.2578 214.977C84.8203 222.138 85.6016 230.569 85.6016 240.27C85.6016 249.645 84.3971 257.132 81.9883 262.73C79.6445 268.329 75.1849 272.203 68.6094 274.352C74.013 275.458 77.7891 278.16 79.9375 282.457C82.151 286.689 83.2578 292.19 83.2578 298.961V364H49.3711V296.715C49.3711 291.702 48.3294 288.609 46.2461 287.438C44.2279 286.201 40.9401 285.582 36.3828 285.582V364H1.61719ZM36.5781 255.797H44.8789C49.6315 255.797 52.0078 250.621 52.0078 240.27C52.0078 233.564 51.487 229.169 50.4453 227.086C49.4036 225.003 47.4505 223.961 44.5859 223.961H36.5781V255.797ZM136.676 365.562C122.353 365.562 111.806 361.559 105.035 353.551C98.2643 345.478 94.8789 333.629 94.8789 318.004V192.125H128.277V316.637C128.277 319.501 128.44 322.268 128.766 324.938C129.091 327.542 129.84 329.69 131.012 331.383C132.184 333.076 134.072 333.922 136.676 333.922C139.345 333.922 141.266 333.108 142.438 331.48C143.609 329.788 144.326 327.607 144.586 324.938C144.911 322.268 145.074 319.501 145.074 316.637V192.125H178.473V318.004C178.473 333.629 175.087 345.478 168.316 353.551C161.546 361.559 150.999 365.562 136.676 365.562ZM232.477 365.562C216.786 365.562 205.458 361.656 198.492 353.844C191.591 346.031 188.141 333.596 188.141 316.539V299.742H222.125V321.227C222.125 325.198 222.711 328.323 223.883 330.602C225.12 332.815 227.236 333.922 230.23 333.922C233.355 333.922 235.504 333.01 236.676 331.188C237.913 329.365 238.531 326.37 238.531 322.203C238.531 316.93 238.01 312.535 236.969 309.02C235.927 305.439 234.104 302.053 231.5 298.863C228.961 295.608 225.413 291.832 220.855 287.535L205.426 272.887C193.902 262.014 188.141 249.579 188.141 235.582C188.141 220.934 191.526 209.768 198.297 202.086C205.133 194.404 214.996 190.562 227.887 190.562C243.642 190.562 254.807 194.762 261.383 203.16C268.023 211.559 271.344 224.319 271.344 241.441H236.383V229.625C236.383 227.281 235.699 225.458 234.332 224.156C233.03 222.854 231.24 222.203 228.961 222.203C226.227 222.203 224.208 222.984 222.906 224.547C221.669 226.044 221.051 227.997 221.051 230.406C221.051 232.815 221.702 235.419 223.004 238.219C224.306 241.018 226.878 244.241 230.719 247.887L250.543 266.93C254.514 270.706 258.16 274.71 261.48 278.941C264.801 283.108 267.47 287.991 269.488 293.59C271.507 299.124 272.516 305.895 272.516 313.902C272.516 330.048 269.521 342.711 263.531 351.891C257.607 361.005 247.255 365.562 232.477 365.562Z" fill="url(#paint0_linear_37_28)"/>
<defs>
<linearGradient id="paint0_linear_37_28" x1="138" y1="2.15769e-06" x2="138" y2="362" gradientUnits="userSpaceOnUse">
<stop offset="0.546875" stop-color="#C3F400"/>
<stop offset="1" stop-color="#C3F400" stop-opacity="0"/>
</linearGradient>
</defs>
</svg>
