<svg width="1230" height="438" viewBox="0 0 1230 438" fill="none" xmlns="http://www.w3.org/2000/svg">
<path d="M104.141 437.906C73.0534 437.906 47.9883 428.222 28.9453 408.854C10.0651 389.485 0.625 362.385 0.625 327.555V129.312C0.625 87.6458 8.8444 55.7448 25.2832 33.6094C41.8848 11.474 68.8216 0.40625 106.094 0.40625C126.439 0.40625 144.505 4.14974 160.293 11.6367C176.243 19.1237 188.776 30.3542 197.891 45.3281C207.005 60.1393 211.562 78.8568 211.562 101.48V175.699H126.113V112.223C126.113 99.3646 124.486 90.7383 121.23 86.3438C117.975 81.7865 112.93 79.5078 106.094 79.5078C98.1185 79.5078 92.7474 82.4375 89.9805 88.2969C87.2135 93.9935 85.8301 101.643 85.8301 111.246V326.334C85.8301 338.215 87.5391 346.598 90.957 351.48C94.5378 356.363 99.5833 358.805 106.094 358.805C113.418 358.805 118.545 355.794 121.475 349.771C124.567 343.749 126.113 335.937 126.113 326.334V248.941H212.539V330.24C212.539 368.001 203.018 395.426 183.975 412.516C164.932 429.443 138.32 437.906 104.141 437.906ZM237.441 434V4.3125H320.449V434H237.441ZM391.494 434V86.832H340.469V4.3125H528.457V86.832H477.432V434H391.494ZM552.383 434V4.3125H684.219C706.191 4.3125 722.793 9.35807 734.023 19.4492C745.254 29.3776 752.741 43.375 756.484 61.4414C760.391 79.3451 762.344 100.423 762.344 124.674C762.344 148.111 759.333 166.829 753.311 180.826C747.451 194.824 736.302 204.508 719.863 209.879C733.372 212.646 742.812 219.4 748.184 230.143C753.717 240.722 756.484 254.475 756.484 271.402V434H671.768V265.787C671.768 253.255 669.163 245.523 663.955 242.594C658.91 239.501 650.69 237.955 639.297 237.955V434H552.383ZM639.785 163.492H660.537C672.419 163.492 678.359 150.553 678.359 124.674C678.359 107.91 677.057 96.9232 674.453 91.7148C671.849 86.5065 666.966 83.9023 659.805 83.9023H639.785V163.492ZM890.029 437.906C854.222 437.906 827.855 427.896 810.928 407.877C794.001 387.695 785.537 358.072 785.537 319.01V4.3125H869.033V315.592C869.033 322.753 869.44 329.671 870.254 336.344C871.068 342.854 872.939 348.225 875.869 352.457C878.799 356.689 883.519 358.805 890.029 358.805C896.702 358.805 901.504 356.77 904.434 352.701C907.363 348.469 909.154 343.017 909.805 336.344C910.618 329.671 911.025 322.753 911.025 315.592V4.3125H994.521V319.01C994.521 358.072 986.058 387.695 969.131 407.877C952.204 427.896 925.837 437.906 890.029 437.906ZM1129.53 437.906C1090.31 437.906 1061.99 428.141 1044.57 408.609C1027.32 389.078 1018.69 357.991 1018.69 315.348V273.355H1103.65V327.066C1103.65 336.995 1105.12 344.807 1108.05 350.504C1111.14 356.038 1116.43 358.805 1123.92 358.805C1131.73 358.805 1137.1 356.526 1140.03 351.969C1143.12 347.411 1144.67 339.924 1144.67 329.508C1144.67 316.324 1143.37 305.338 1140.76 296.549C1138.16 287.597 1133.6 279.133 1127.09 271.158C1120.74 263.02 1111.87 253.58 1100.48 242.838L1061.9 206.217C1033.1 179.036 1018.69 147.949 1018.69 112.955C1018.69 76.334 1027.15 48.4206 1044.08 29.2148C1061.17 10.0091 1085.83 0.40625 1118.06 0.40625C1157.44 0.40625 1185.36 10.9043 1201.8 31.9004C1218.4 52.8965 1226.7 84.7975 1226.7 127.604H1139.3V98.0625C1139.3 92.2031 1137.59 87.6458 1134.17 84.3906C1130.91 81.1354 1126.44 79.5078 1120.74 79.5078C1113.91 79.5078 1108.86 81.4609 1105.61 85.3672C1102.51 89.1107 1100.97 93.9935 1100.97 100.016C1100.97 106.038 1102.59 112.548 1105.85 119.547C1109.1 126.546 1115.53 134.602 1125.14 143.717L1174.7 191.324C1184.63 200.764 1193.74 210.774 1202.04 221.354C1210.34 231.77 1217.01 243.977 1222.06 257.975C1227.11 271.809 1229.63 288.736 1229.63 308.756C1229.63 349.12 1222.14 380.777 1207.17 403.727C1192.36 426.513 1166.48 437.906 1129.53 437.906Z" fill="url(#paint0_linear_14_2)"/>
<defs>
<linearGradient id="paint0_linear_14_2" x1="612.5" y1="203.849" x2="612.5" y2="415.088" gradientUnits="userSpaceOnUse">
<stop stop-color="#C3F400"/>
<stop offset="1" stop-color="#C3F400" stop-opacity="0"/>
</linearGradient>
</defs>
</svg>
